<svg width="105" height="24" viewBox="0 0 105 24" fill="none" xmlns="http://www.w3.org/2000/svg">
<g filter="url(#filter0_n_2288_276)">
<path d="M33.8142 18.7123C33.2312 18.7123 32.7767 18.4813 32.4509 18.0193C32.1251 17.5572 32.0736 16.8128 32.2966 15.7861L34.4316 6.49412C34.4831 6.23744 34.3802 6.10909 34.1229 6.10909H33.1454C32.9054 6.10909 32.7853 5.99786 32.7853 5.7754C32.7853 5.65562 32.8282 5.5615 32.9139 5.49305C32.9997 5.4246 33.1026 5.39038 33.2226 5.39038H34.1486C34.5431 5.39038 34.7746 5.2107 34.8432 4.85134L35.4605 2.10482C35.512 1.91658 35.632 1.82246 35.8207 1.82246H36.8753C37.1154 1.82246 37.2097 1.93369 37.1583 2.15615L36.5152 5.00535C36.4637 5.26203 36.5666 5.39038 36.8239 5.39038H38.2901C38.5816 5.39038 38.7274 5.50161 38.7274 5.72407C38.7274 5.98075 38.5473 6.10909 38.1872 6.10909H36.7981C36.4209 6.10909 36.1894 6.28877 36.1036 6.64813L33.9429 16.0428C33.8571 16.4193 33.8657 16.7187 33.9686 16.9412C34.0886 17.1465 34.2858 17.2492 34.5602 17.2492C34.9546 17.2492 35.3148 17.0267 35.6406 16.5818C35.9836 16.1369 36.3437 15.2898 36.721 14.0406C36.7896 13.8182 36.901 13.707 37.0554 13.707C37.1754 13.707 37.2526 13.7583 37.2869 13.861C37.3212 13.9636 37.2955 14.1519 37.2097 14.4257C36.8839 15.5893 36.5238 16.4791 36.1293 17.0952C35.7521 17.7112 35.3662 18.139 34.9718 18.3786C34.5774 18.6011 34.1915 18.7123 33.8142 18.7123Z" fill="white"/>
<path d="M26.4122 18.7123C25.8463 18.7123 25.2461 18.6268 24.6116 18.4556C23.9943 18.2845 23.5227 18.0706 23.1968 17.8139C23.0768 17.7112 23.0254 17.5572 23.0425 17.3519L23.6084 13.9893C23.6427 13.7669 23.7456 13.6556 23.9171 13.6556C24.1057 13.6556 24.2 13.7754 24.2 14.015L24.2515 15.2471C24.2858 16.2225 24.5173 16.9412 24.946 17.4032C25.3919 17.8481 25.9321 18.0706 26.5666 18.0706C27.1153 18.0706 27.5869 17.8995 27.9814 17.5572C28.3758 17.1979 28.573 16.6759 28.573 15.9915C28.573 15.5979 28.513 15.2385 28.3929 14.9134C28.2729 14.5711 28.0843 14.2118 27.827 13.8353C27.5698 13.4417 27.2182 12.9711 26.7724 12.4235C26.1893 11.6706 25.752 11.0289 25.4605 10.4984C25.1861 9.95081 25.0489 9.38611 25.0489 8.80429C25.0489 7.72622 25.3833 6.86204 26.0521 6.21178C26.7381 5.56151 27.6041 5.23638 28.6502 5.23638C29.1132 5.23638 29.5591 5.30482 29.9878 5.44172C30.4336 5.57862 30.8023 5.78397 31.0939 6.05777C31.2482 6.17755 31.2997 6.33156 31.2482 6.5198L30.528 9.95937C30.4765 10.1818 30.3736 10.2931 30.2193 10.2931C30.0649 10.2931 29.9706 10.1733 29.9363 9.9337L29.8592 8.70162C29.7906 7.67488 29.6534 6.93905 29.4476 6.49413C29.259 6.04921 28.856 5.82675 28.2386 5.82675C27.6898 5.82675 27.244 6.01499 26.901 6.39146C26.558 6.76793 26.3865 7.2214 26.3865 7.75188C26.3865 8.31659 26.5409 8.83852 26.8495 9.31766C27.1582 9.77969 27.5784 10.3701 28.11 11.0888C28.8131 12.0128 29.2847 12.7487 29.5248 13.2963C29.782 13.8439 29.9106 14.4 29.9106 14.9647C29.9106 15.6834 29.7477 16.3251 29.4219 16.8899C29.1132 17.4546 28.693 17.8995 28.1614 18.2246C27.6298 18.5497 27.0468 18.7123 26.4122 18.7123Z" fill="white"/>
<path d="M13.324 18.7123C12.6895 18.7123 12.2522 18.43 12.0121 17.8653C11.7892 17.2834 11.8064 16.5219 12.0636 15.5808L14.0957 8.13691C14.2329 7.64065 14.2672 7.25563 14.1986 6.98183C14.13 6.70803 13.9757 6.57114 13.7356 6.57114C13.3412 6.57114 12.9382 6.8706 12.5266 7.46953C12.1322 8.06846 11.7892 8.89841 11.4977 9.95937C11.4462 10.1476 11.3348 10.2417 11.1633 10.2417C10.9232 10.2417 10.846 10.0706 10.9318 9.72835C11.3262 8.29092 11.8406 7.18718 12.4752 6.41712C13.1268 5.62996 13.8385 5.23638 14.6102 5.23638C15.2275 5.23638 15.6391 5.51873 15.8449 6.08343C16.0507 6.64814 16.0164 7.41819 15.742 8.39359L13.6841 15.8374C13.3583 17.0182 13.4698 17.6086 14.0185 17.6086C14.3615 17.6086 14.7559 17.3776 15.2018 16.9155C15.6477 16.4535 16.1107 15.8203 16.5909 15.0161C17.0882 14.2118 17.5769 13.2963 18.0571 12.2695C18.5373 11.2428 18.9746 10.1647 19.369 9.03531C19.7634 7.90589 20.0892 6.78504 20.3465 5.67274C20.3979 5.4845 20.518 5.39039 20.7066 5.39039H21.7355C21.9756 5.39039 22.0699 5.50162 22.0185 5.72408L19.6005 16.0428C19.4119 16.8471 19.5576 17.2492 20.0378 17.2492C20.758 17.2492 21.5126 16.1626 22.3014 13.9893C22.37 13.7669 22.4901 13.6556 22.6616 13.6556C22.7645 13.6556 22.833 13.6984 22.8673 13.784C22.9188 13.8695 22.9188 13.9808 22.8673 14.1177C22.4043 15.5722 21.8556 16.7016 21.2211 17.5059C20.5866 18.3102 19.9177 18.7123 19.2146 18.7123C17.9799 18.7123 17.5684 17.8139 17.9799 16.0171L18.6487 13.1679C18.683 13.0481 18.6573 12.9797 18.5716 12.9626C18.503 12.9455 18.4429 12.9882 18.3915 13.0909C17.3969 15.1444 16.4794 16.5989 15.6391 17.4546C14.7988 18.2931 14.0271 18.7123 13.324 18.7123Z" fill="white"/>
<path d="M1.62056 24C1.1404 24 0.754548 23.8717 0.463018 23.615C0.154339 23.3583 0 23.0246 0 22.6139C0 22.2717 0.102893 21.9636 0.308679 21.6898C0.514465 21.416 0.797421 21.2791 1.15755 21.2791C1.46622 21.2791 1.68059 21.3647 1.80063 21.5358C1.92067 21.7069 2.00641 21.9037 2.05786 22.1262C2.09216 22.3487 2.15218 22.5455 2.23792 22.7166C2.30652 22.8877 2.45228 22.9733 2.67522 22.9733C3.00104 22.9733 3.30115 22.785 3.57553 22.4086C3.83276 22.0321 4.03855 21.5016 4.19289 20.8171L8.61729 1.69412C8.70303 1.33476 8.70303 1.09519 8.61729 0.975401C8.53154 0.855615 8.31718 0.761498 7.9742 0.693048L7.45974 0.590374C7.2368 0.539037 7.12534 0.44492 7.12534 0.308022C7.12534 0.102674 7.27968 0 7.58836 0H12.1671C12.4072 0 12.5272 0.0855614 12.5272 0.256684C12.5272 0.444919 12.3557 0.564705 12.0128 0.616042L11.4983 0.693048C11.121 0.744385 10.8638 0.838502 10.7266 0.975401C10.5894 1.09519 10.4779 1.33476 10.3922 1.69412L6.76521 17.3519C6.28505 19.4053 5.58194 21.0225 4.65591 22.2032C3.74702 23.4011 2.73524 24 1.62056 24Z" fill="white"/>
<path d="M95.5781 12.6331H96.3633V13.4166H95.5781V12.6331ZM95.5781 13.4166H96.3633V14.2001H95.5781V13.4166ZM95.5781 14.2001H96.3633V14.9836H95.5781V14.2001ZM95.5781 14.9836H96.3633V15.7671H95.5781V14.9836ZM95.5781 15.7671H96.3633V16.5506H95.5781V15.7671ZM96.3633 15.7671H97.1484V16.5506H96.3633V15.7671ZM97.1484 15.7671H97.9336V16.5506H97.1484V15.7671ZM97.1484 14.9836H97.9336V15.7671H97.1484V14.9836ZM97.9336 14.9836H98.7188V15.7671H97.9336V14.9836ZM97.9336 14.2001H98.7188V14.9836H97.9336V14.2001ZM97.9336 12.6331H98.7188V13.4166H97.9336V12.6331ZM97.1484 12.6331H97.9336V13.4166H97.1484V12.6331ZM97.1484 13.4166H97.9336V14.2001H97.1484V13.4166ZM97.1484 14.2001H97.9336V14.9836H97.1484V14.2001ZM97.9336 13.4166H98.7188V14.2001H97.9336V13.4166ZM96.3633 13.4166H97.1484V14.2001H96.3633V13.4166ZM96.3633 12.6331H97.1484V13.4166H96.3633V12.6331ZM96.3633 14.2001H97.1484V14.9836H96.3633V14.2001ZM96.3633 14.9836H97.1484V15.7671H96.3633V14.9836ZM94.793 17.334H95.5781V18.1175H94.793V17.334ZM94.0078 17.334H94.793V18.1175H94.0078V17.334ZM94.0078 16.5506H94.793V17.334H94.0078V16.5506ZM94.793 16.5506H95.5781V17.334H94.793V16.5506ZM95.5781 16.5506H96.3633V17.334H95.5781V16.5506ZM95.5781 17.334H96.3633V18.1175H95.5781V17.334ZM96.3633 17.334H97.1484V18.1175H96.3633V17.334ZM97.1484 17.334H97.9336V18.1175H97.1484V17.334ZM97.9336 17.334H98.7188V18.1175H97.9336V17.334ZM97.9336 16.5506H98.7188V17.334H97.9336V16.5506ZM97.9336 15.7671H98.7188V16.5506H97.9336V15.7671ZM97.1484 16.5506H97.9336V17.334H97.1484V16.5506ZM96.3633 16.5506H97.1484V17.334H96.3633V16.5506ZM97.1484 18.1175H97.9336V18.901H97.1484V18.1175ZM97.1484 18.901H97.9336V19.6845H97.1484V18.901ZM97.9336 18.901H98.7188V19.6845H97.9336V18.901ZM97.9336 18.1175H98.7188V18.901H97.9336V18.1175ZM98.7188 17.334H99.5039V18.1175H98.7188V17.334ZM98.7188 16.5506H99.5039V17.334H98.7188V16.5506ZM99.5039 16.5506H100.289V17.334H99.5039V16.5506ZM99.5039 17.334H100.289V18.1175H99.5039V17.334ZM99.5039 18.1175H100.289V18.901H99.5039V18.1175ZM99.5039 18.901H100.289V19.6845H99.5039V18.901ZM98.7188 18.901H99.5039V19.6845H98.7188V18.901ZM98.7188 18.1175H99.5039V18.901H98.7188V18.1175ZM100.289 16.5506H101.074V17.334H100.289V16.5506ZM101.074 16.5506H101.859V17.334H101.074V16.5506ZM101.074 17.334H101.859V18.1175H101.074V17.334ZM100.289 17.334H101.074V18.1175H100.289V17.334ZM101.859 16.5506H102.645V17.334H101.859V16.5506ZM102.645 16.5506H103.43V17.334H102.645V16.5506ZM101.859 17.334H102.645V18.1175H101.859V17.334ZM101.859 15.7671H102.645V16.5506H101.859V15.7671ZM101.859 14.9836H102.645V15.7671H101.859V14.9836ZM102.645 14.9836H103.43V15.7671H102.645V14.9836ZM102.645 15.7671H103.43V16.5506H102.645V15.7671ZM103.43 14.9836H104.215V15.7671H103.43V14.9836ZM104.215 14.2001H105V14.9836H104.215V14.2001ZM104.215 13.4166H105V14.2001H104.215V13.4166ZM104.215 12.6331H105V13.4166H104.215V12.6331ZM103.43 12.6331H104.215V13.4166H103.43V12.6331ZM102.645 12.6331H103.43V13.4166H102.645V12.6331ZM102.645 13.4166H103.43V14.2001H102.645V13.4166ZM101.859 13.4166H102.645V14.2001H101.859V13.4166ZM101.859 14.2001H102.645V14.9836H101.859V14.2001ZM102.645 14.2001H103.43V14.9836H102.645V14.2001ZM103.43 14.2001H104.215V14.9836H103.43V14.2001ZM103.43 13.4166H104.215V14.2001H103.43V13.4166ZM101.859 12.6331H102.645V13.4166H101.859V12.6331ZM96.3633 18.1175H97.1484V18.901H96.3633V18.1175ZM100.289 18.1175H101.074V18.901H100.289V18.1175ZM103.43 15.7671H104.215V16.5506H103.43V15.7671ZM104.215 14.9836H105V15.7671H104.215V14.9836ZM101.074 18.1175H101.859V18.901H101.074V18.1175ZM100.289 18.901H101.074V19.6845H100.289V18.901ZM97.9336 6.36525H98.7188V7.14874H97.9336V6.36525ZM97.9336 7.14874H98.7188V7.93222H97.9336V7.14874ZM97.9336 7.93222H98.7188V8.71571H97.9336V7.93222ZM97.9336 8.71571H98.7188V9.49919H97.9336V8.71571ZM97.9336 9.49919H98.7188V10.2827H97.9336V9.49919ZM97.9336 10.2827H98.7188V11.0662H97.9336V10.2827ZM97.9336 11.0662H98.7188V11.8496H97.9336V11.0662ZM97.9336 11.8496H98.7188V12.6331H97.9336V11.8496ZM97.1484 11.8496H97.9336V12.6331H97.1484V11.8496ZM96.3633 11.8496H97.1484V12.6331H96.3633V11.8496ZM96.3633 11.0662H97.1484V11.8496H96.3633V11.0662ZM95.5781 11.0662H96.3633V11.8496H95.5781V11.0662ZM95.5781 10.2827H96.3633V11.0662H95.5781V10.2827ZM96.3633 10.2827H97.1484V11.0662H96.3633V10.2827ZM95.5781 11.8496H96.3633V12.6331H95.5781V11.8496ZM96.3633 9.49919H97.1484V10.2827H96.3633V9.49919ZM97.1484 9.49919H97.9336V10.2827H97.1484V9.49919ZM97.1484 10.2827H97.9336V11.0662H97.1484V10.2827ZM97.1484 11.0662H97.9336V11.8496H97.1484V11.0662ZM97.1484 8.71571H97.9336V9.49919H97.1484V8.71571ZM97.1484 7.93222H97.9336V8.71571H97.1484V7.93222ZM97.1484 7.14874H97.9336V7.93222H97.1484V7.14874ZM96.3633 7.93222H97.1484V8.71571H96.3633V7.93222ZM96.3633 8.71571H97.1484V9.49919H96.3633V8.71571ZM95.5781 8.71571H96.3633V9.49919H95.5781V8.71571ZM95.5781 9.49919H96.3633V10.2827H95.5781V9.49919ZM101.859 11.8496H102.645V12.6331H101.859V11.8496ZM101.859 11.0662H102.645V11.8496H101.859V11.0662ZM101.859 10.2827H102.645V11.0662H101.859V10.2827ZM101.859 9.49919H102.645V10.2827H101.859V9.49919ZM101.859 8.71571H102.645V9.49919H101.859V8.71571ZM101.859 7.93222H102.645V8.71571H101.859V7.93222ZM101.859 7.14874H102.645V7.93222H101.859V7.14874ZM101.859 6.36525H102.645V7.14874H101.859V6.36525ZM102.645 6.36525H103.43V7.14874H102.645V6.36525ZM103.43 6.36525H104.215V7.14874H103.43V6.36525ZM104.215 6.36525H105V7.14874H104.215V6.36525ZM104.215 7.14874H105V7.93222H104.215V7.14874ZM104.215 7.93222H105V8.71571H104.215V7.93222ZM104.215 8.71571H105V9.49919H104.215V8.71571ZM104.215 9.49919H105V10.2827H104.215V9.49919ZM104.215 10.2827H105V11.0662H104.215V10.2827ZM104.215 11.0662H105V11.8496H104.215V11.0662ZM104.215 11.8496H105V12.6331H104.215V11.8496ZM103.43 11.8496H104.215V12.6331H103.43V11.8496ZM102.645 11.8496H103.43V12.6331H102.645V11.8496ZM102.645 11.0662H103.43V11.8496H102.645V11.0662ZM102.645 10.2827H103.43V11.0662H102.645V10.2827ZM102.645 9.49919H103.43V10.2827H102.645V9.49919ZM102.645 8.71571H103.43V9.49919H102.645V8.71571ZM102.645 7.93222H103.43V8.71571H102.645V7.93222ZM103.43 7.14874H104.215V7.93222H103.43V7.14874ZM103.43 7.93222H104.215V8.71571H103.43V7.93222ZM103.43 8.71571H104.215V9.49919H103.43V8.71571ZM103.43 9.49919H104.215V10.2827H103.43V9.49919ZM103.43 10.2827H104.215V11.0662H103.43V10.2827ZM103.43 11.0662H104.215V11.8496H103.43V11.0662ZM102.645 7.14874H103.43V7.93222H102.645V7.14874ZM103.43 5.58177H104.215V6.36525H103.43V5.58177ZM102.645 4.79829H103.43V5.58177H102.645V4.79829ZM101.859 4.0148H102.645V4.79829H101.859V4.0148ZM101.074 3.23132H101.859V4.0148H101.074V3.23132ZM100.289 2.44783H101.074V3.23132H100.289V2.44783ZM99.5039 1.66435H100.289V2.44783H99.5039V1.66435ZM98.7188 5.58177H99.5039V6.36525H98.7188V5.58177ZM99.5039 6.36525H100.289V7.14874H99.5039V6.36525ZM100.289 7.14874H101.074V7.93222H100.289V7.14874ZM101.074 7.93222H101.859V8.71571H101.074V7.93222ZM101.074 7.14874H101.859V7.93222H101.074V7.14874ZM101.074 6.36525H101.859V7.14874H101.074V6.36525ZM101.074 5.58177H101.859V6.36525H101.074V5.58177ZM101.074 4.79829H101.859V5.58177H101.074V4.79829ZM100.289 5.58177H101.074V6.36525H100.289V5.58177ZM100.289 6.36525H101.074V7.14874H100.289V6.36525ZM99.5039 5.58177H100.289V6.36525H99.5039V5.58177ZM99.5039 4.79829H100.289V5.58177H99.5039V4.79829ZM99.5039 4.0148H100.289V4.79829H99.5039V4.0148ZM100.289 4.0148H101.074V4.79829H100.289V4.0148ZM101.074 4.0148H101.859V4.79829H101.074V4.0148ZM100.289 4.79829H101.074V5.58177H100.289V4.79829ZM101.859 4.79829H102.645V5.58177H101.859V4.79829ZM101.859 5.58177H102.645V6.36525H101.859V5.58177ZM102.645 5.58177H103.43V6.36525H102.645V5.58177ZM97.9336 4.79829H98.7188V5.58177H97.9336V4.79829ZM96.3633 0.880861H97.1484V1.66435H96.3633V0.880861ZM96.3633 1.66435H97.1484V2.44783H96.3633V1.66435ZM96.3633 2.44783H97.1484V3.23132H96.3633V2.44783ZM98.7188 1.66435H99.5039V2.44783H98.7188V1.66435ZM97.9336 1.66435H98.7188V2.44783H97.9336V1.66435ZM97.1484 1.66435H97.9336V2.44783H97.1484V1.66435ZM97.1484 0.880861H97.9336V1.66435H97.1484V0.880861ZM97.9336 0.880861H98.7188V1.66435H97.9336V0.880861ZM99.5039 2.44783H100.289V3.23132H99.5039V2.44783ZM98.7188 2.44783H99.5039V3.23132H98.7188V2.44783ZM97.9336 2.44783H98.7188V3.23132H97.9336V2.44783ZM97.1484 2.44783H97.9336V3.23132H97.1484V2.44783ZM97.1484 3.23132H97.9336V4.0148H97.1484V3.23132ZM97.9336 3.23132H98.7188V4.0148H97.9336V3.23132ZM97.9336 4.0148H98.7188V4.79829H97.9336V4.0148ZM98.7188 4.0148H99.5039V4.79829H98.7188V4.0148ZM98.7188 3.23132H99.5039V4.0148H98.7188V3.23132ZM98.7188 4.79829H99.5039V5.58177H98.7188V4.79829ZM99.5039 3.23132H100.289V4.0148H99.5039V3.23132ZM100.289 3.23132H101.074V4.0148H100.289V3.23132ZM97.1484 4.0148H97.9336V4.79829H97.1484V4.0148ZM96.3633 3.23132H97.1484V4.0148H96.3633V3.23132ZM95.5781 2.44783H96.3633V3.23132H95.5781V2.44783ZM95.5781 1.66435H96.3633V2.44783H95.5781V1.66435ZM98.7188 0.880861H99.5039V1.66435H98.7188V0.880861ZM97.9336 0.0973788H98.7188V0.880861H97.9336V0.0973788ZM97.1484 0.0973788H97.9336V0.880861H97.1484V0.0973788Z" fill="white"/>
<path d="M88.5163 18.901H89.3015V19.6845H88.5163V18.901ZM89.3015 18.901H90.0866V19.6845H89.3015V18.901ZM87.7312 18.1175H88.5163V18.901H87.7312V18.1175ZM88.5163 18.1175H89.3015V18.901H88.5163V18.1175ZM89.3015 18.1175H90.0866V18.901H89.3015V18.1175ZM90.0866 18.1175H90.8718V18.901H90.0866V18.1175ZM86.946 17.334H87.7312V18.1175H86.946V17.334ZM87.7312 17.334H88.5163V18.1175H87.7312V17.334ZM87.7312 16.5506H88.5163V17.334H87.7312V16.5506ZM88.5163 16.5506H89.3015V17.334H88.5163V16.5506ZM88.5163 17.334H89.3015V18.1175H88.5163V17.334ZM89.3015 17.334H90.0866V18.1175H89.3015V17.334ZM90.0866 17.334H90.8718V18.1175H90.0866V17.334ZM90.0866 16.5506H90.8718V17.334H90.0866V16.5506ZM90.8718 17.334H91.6569V18.1175H90.8718V17.334ZM89.3015 16.5506H90.0866V17.334H89.3015V16.5506ZM88.5163 15.7671H89.3015V16.5506H88.5163V15.7671ZM89.3015 15.7671H90.0866V16.5506H89.3015V15.7671ZM90.0866 15.7671H90.8718V16.5506H90.0866V15.7671ZM90.0866 14.9836H90.8718V15.7671H90.0866V14.9836ZM89.3015 14.9836H90.0866V15.7671H89.3015V14.9836ZM88.5163 14.9836H89.3015V15.7671H88.5163V14.9836ZM88.5163 14.2001H89.3015V14.9836H88.5163V14.2001ZM88.5163 13.4166H89.3015V14.2001H88.5163V13.4166ZM88.5163 12.6331H89.3015V13.4166H88.5163V12.6331ZM88.5163 11.8496H89.3015V12.6331H88.5163V11.8496ZM88.5163 11.0662H89.3015V11.8496H88.5163V11.0662ZM89.3015 11.0662H90.0866V11.8496H89.3015V11.0662ZM90.0866 11.0662H90.8718V11.8496H90.0866V11.0662ZM90.0866 11.8496H90.8718V12.6331H90.0866V11.8496ZM90.0866 12.6331H90.8718V13.4166H90.0866V12.6331ZM90.0866 13.4166H90.8718V14.2001H90.0866V13.4166ZM89.3015 13.4166H90.0866V14.2001H89.3015V13.4166ZM89.3015 14.2001H90.0866V14.9836H89.3015V14.2001ZM89.3015 12.6331H90.0866V13.4166H89.3015V12.6331ZM89.3015 11.8496H90.0866V12.6331H89.3015V11.8496ZM90.0866 14.2001H90.8718V14.9836H90.0866V14.2001ZM90.0866 10.2827H90.8718V11.0662H90.0866V10.2827ZM90.0866 9.49919H90.8718V10.2827H90.0866V9.49919ZM90.0866 8.71571H90.8718V9.49919H90.0866V8.71571ZM90.0866 7.93222H90.8718V8.71571H90.0866V7.93222ZM90.0866 7.14874H90.8718V7.93222H90.0866V7.14874ZM90.0866 6.36525H90.8718V7.14874H90.0866V6.36525ZM90.0866 4.79829H90.8718V5.58177H90.0866V4.79829ZM90.0866 4.0148H90.8718V4.79829H90.0866V4.0148ZM90.0866 3.23132H90.8718V4.0148H90.0866V3.23132ZM90.0866 2.44783H90.8718V3.23132H90.0866V2.44783ZM90.0866 1.66435H90.8718V2.44783H90.0866V1.66435ZM90.0866 0.880861H90.8718V1.66435H90.0866V0.880861ZM90.0866 0.0973788H90.8718V0.880861H90.0866V0.0973788ZM88.5163 1.66435H89.3015V2.44783H88.5163V1.66435ZM88.5163 2.44783H89.3015V3.23132H88.5163V2.44783ZM88.5163 3.23132H89.3015V4.0148H88.5163V3.23132ZM88.5163 4.0148H89.3015V4.79829H88.5163V4.0148ZM88.5163 4.79829H89.3015V5.58177H88.5163V4.79829ZM88.5163 6.36525H89.3015V7.14874H88.5163V6.36525ZM88.5163 7.14874H89.3015V7.93222H88.5163V7.14874ZM89.3015 7.93222H90.0866V8.71571H89.3015V7.93222ZM89.3015 8.71571H90.0866V9.49919H89.3015V8.71571ZM89.3015 9.49919H90.0866V10.2827H89.3015V9.49919ZM89.3015 10.2827H90.0866V11.0662H89.3015V10.2827ZM88.5163 10.2827H89.3015V11.0662H88.5163V10.2827ZM88.5163 9.49919H89.3015V10.2827H88.5163V9.49919ZM88.5163 8.71571H89.3015V9.49919H88.5163V8.71571ZM88.5163 7.93222H89.3015V8.71571H88.5163V7.93222ZM89.3015 7.14874H90.0866V7.93222H89.3015V7.14874ZM89.3015 6.36525H90.0866V7.14874H89.3015V6.36525ZM89.3015 4.79829H90.0866V5.58177H89.3015V4.79829ZM89.3015 4.0148H90.0866V4.79829H89.3015V4.0148ZM89.3015 3.23132H90.0866V4.0148H89.3015V3.23132ZM89.3015 2.44783H90.0866V3.23132H89.3015V2.44783ZM89.3015 1.66435H90.0866V2.44783H89.3015V1.66435ZM89.3015 0.880861H90.0866V1.66435H89.3015V0.880861ZM87.7312 15.7671H88.5163V16.5506H87.7312V15.7671ZM87.7312 14.9836H88.5163V15.7671H87.7312V14.9836ZM87.7312 14.2001H88.5163V14.9836H87.7312V14.2001ZM87.7312 13.4166H88.5163V14.2001H87.7312V13.4166ZM87.7312 12.6331H88.5163V13.4166H87.7312V12.6331ZM87.7312 11.8496H88.5163V12.6331H87.7312V11.8496ZM87.7312 11.0662H88.5163V11.8496H87.7312V11.0662ZM87.7312 10.2827H88.5163V11.0662H87.7312V10.2827ZM87.7312 9.49919H88.5163V10.2827H87.7312V9.49919ZM87.7312 8.71571H88.5163V9.49919H87.7312V8.71571ZM87.7312 7.14874H88.5163V7.93222H87.7312V7.14874ZM87.7312 4.79829H88.5163V5.58177H87.7312V4.79829ZM87.7312 4.0148H88.5163V4.79829H87.7312V4.0148ZM87.7312 3.23132H88.5163V4.0148H87.7312V3.23132ZM87.7312 6.36525H88.5163V7.14874H87.7312V6.36525ZM87.7312 7.93222H88.5163V8.71571H87.7312V7.93222ZM87.7312 2.44783H88.5163V3.23132H87.7312V2.44783ZM87.7312 5.58177H88.5163V6.36525H87.7312V5.58177ZM88.5163 5.58177H89.3015V6.36525H88.5163V5.58177ZM89.3015 5.58177H90.0866V6.36525H89.3015V5.58177ZM90.0866 5.58177H90.8718V6.36525H90.0866V5.58177ZM91.6569 16.5506H92.4421V17.334H91.6569V16.5506ZM86.1608 16.5506H86.946V17.334H86.1608V16.5506ZM86.946 16.5506H87.7312V17.334H86.946V16.5506ZM90.8718 16.5506H91.6569V17.334H90.8718V16.5506ZM87.7312 18.901H88.5163V19.6845H87.7312V18.901ZM86.1608 17.334H86.946V18.1175H86.1608V17.334Z" fill="white"/>
<path d="M80.6693 18.901H81.4545V19.6845H80.6693V18.901ZM81.4545 18.901H82.2397V19.6845H81.4545V18.901ZM79.8842 18.1175H80.6693V18.901H79.8842V18.1175ZM80.6693 18.1175H81.4545V18.901H80.6693V18.1175ZM81.4545 18.1175H82.2397V18.901H81.4545V18.1175ZM82.2397 18.1175H83.0248V18.901H82.2397V18.1175ZM79.099 17.334H79.8842V18.1175H79.099V17.334ZM79.8842 17.334H80.6693V18.1175H79.8842V17.334ZM79.8842 16.5506H80.6693V17.334H79.8842V16.5506ZM80.6693 16.5506H81.4545V17.334H80.6693V16.5506ZM80.6693 17.334H81.4545V18.1175H80.6693V17.334ZM81.4545 17.334H82.2397V18.1175H81.4545V17.334ZM82.2397 17.334H83.0248V18.1175H82.2397V17.334ZM82.2397 16.5506H83.0248V17.334H82.2397V16.5506ZM81.4545 16.5506H82.2397V17.334H81.4545V16.5506ZM80.6693 15.7671H81.4545V16.5506H80.6693V15.7671ZM81.4545 15.7671H82.2397V16.5506H81.4545V15.7671ZM82.2397 15.7671H83.0248V16.5506H82.2397V15.7671ZM82.2397 14.9836H83.0248V15.7671H82.2397V14.9836ZM81.4545 14.9836H82.2397V15.7671H81.4545V14.9836ZM80.6693 14.9836H81.4545V15.7671H80.6693V14.9836ZM80.6693 14.2001H81.4545V14.9836H80.6693V14.2001ZM80.6693 13.4166H81.4545V14.2001H80.6693V13.4166ZM80.6693 12.6331H81.4545V13.4166H80.6693V12.6331ZM80.6693 11.8497H81.4545V12.6331H80.6693V11.8497ZM80.6693 11.0662H81.4545V11.8497H80.6693V11.0662ZM81.4545 11.0662H82.2397V11.8497H81.4545V11.0662ZM82.2397 11.0662H83.0248V11.8497H82.2397V11.0662ZM82.2397 11.8497H83.0248V12.6331H82.2397V11.8497ZM82.2397 12.6331H83.0248V13.4166H82.2397V12.6331ZM82.2397 13.4166H83.0248V14.2001H82.2397V13.4166ZM81.4545 13.4166H82.2397V14.2001H81.4545V13.4166ZM81.4545 14.2001H82.2397V14.9836H81.4545V14.2001ZM81.4545 12.6331H82.2397V13.4166H81.4545V12.6331ZM81.4545 11.8497H82.2397V12.6331H81.4545V11.8497ZM82.2397 14.2001H83.0248V14.9836H82.2397V14.2001ZM82.2397 10.2827H83.0248V11.0662H82.2397V10.2827ZM82.2397 9.4992H83.0248V10.2827H82.2397V9.4992ZM82.2397 8.71571H83.0248V9.4992H82.2397V8.71571ZM82.2397 7.93223H83.0248V8.71571H82.2397V7.93223ZM82.2397 7.14874H83.0248V7.93223H82.2397V7.14874ZM80.6693 7.14874H81.4545V7.93223H80.6693V7.14874ZM81.4545 7.93223H82.2397V8.71571H81.4545V7.93223ZM81.4545 8.71571H82.2397V9.4992H81.4545V8.71571ZM81.4545 9.4992H82.2397V10.2827H81.4545V9.4992ZM81.4545 10.2827H82.2397V11.0662H81.4545V10.2827ZM80.6693 10.2827H81.4545V11.0662H80.6693V10.2827ZM80.6693 9.4992H81.4545V10.2827H80.6693V9.4992ZM80.6693 8.71571H81.4545V9.4992H80.6693V8.71571ZM80.6693 7.93223H81.4545V8.71571H80.6693V7.93223ZM81.4545 7.14874H82.2397V7.93223H81.4545V7.14874ZM79.8842 15.7671H80.6693V16.5506H79.8842V15.7671ZM79.8842 14.9836H80.6693V15.7671H79.8842V14.9836ZM79.8842 14.2001H80.6693V14.9836H79.8842V14.2001ZM79.8842 13.4166H80.6693V14.2001H79.8842V13.4166ZM79.8842 12.6331H80.6693V13.4166H79.8842V12.6331ZM79.8842 11.8497H80.6693V12.6331H79.8842V11.8497ZM79.8842 11.0662H80.6693V11.8497H79.8842V11.0662ZM79.8842 10.2827H80.6693V11.0662H79.8842V10.2827ZM79.8842 9.4992H80.6693V10.2827H79.8842V9.4992ZM79.8842 8.71571H80.6693V9.4992H79.8842V8.71571ZM79.8842 7.14874H80.6693V7.93223H79.8842V7.14874ZM79.8842 7.93223H80.6693V8.71571H79.8842V7.93223ZM83.81 16.5506H84.5951V17.334H83.81V16.5506ZM80.6693 6.36526H81.4545V7.14874H80.6693V6.36526ZM81.4545 6.36526H82.2397V7.14874H81.4545V6.36526ZM79.8842 3.23132H80.6693V4.0148H79.8842V3.23132ZM80.6693 3.23132H81.4545V4.0148H80.6693V3.23132ZM81.4545 3.23132H82.2397V4.0148H81.4545V3.23132ZM82.2397 3.23132H83.0248V4.0148H82.2397V3.23132ZM82.2397 2.44783H83.0248V3.23132H82.2397V2.44783ZM82.2397 1.66435H83.0248V2.44783H82.2397V1.66435ZM82.2397 0.880865H83.0248V1.66435H82.2397V0.880865ZM81.4545 0.880865H82.2397V1.66435H81.4545V0.880865ZM80.6693 0.880865H81.4545V1.66435H80.6693V0.880865ZM79.8842 0.880865H80.6693V1.66435H79.8842V0.880865ZM79.8842 1.66435H80.6693V2.44783H79.8842V1.66435ZM79.8842 2.44783H80.6693V3.23132H79.8842V2.44783ZM80.6693 2.44783H81.4545V3.23132H80.6693V2.44783ZM81.4545 2.44783H82.2397V3.23132H81.4545V2.44783ZM81.4545 1.66435H82.2397V2.44783H81.4545V1.66435ZM80.6693 1.66435H81.4545V2.44783H80.6693V1.66435ZM83.0248 17.334H83.81V18.1175H83.0248V17.334ZM79.099 7.93223H79.8842V8.71571H79.099V7.93223ZM78.3139 7.93223H79.099V8.71571H78.3139V7.93223ZM78.3139 8.71571H79.099V9.4992H78.3139V8.71571ZM79.099 8.71571H79.8842V9.4992H79.099V8.71571ZM83.0248 7.93223H83.81V8.71571H83.0248V7.93223ZM83.81 7.93223H84.5951V8.71571H83.81V7.93223ZM83.81 8.71571H84.5951V9.4992H83.81V8.71571ZM83.0248 8.71571H83.81V9.4992H83.0248V8.71571ZM78.3139 16.5506H79.099V17.334H78.3139V16.5506ZM79.099 16.5506H79.8842V17.334H79.099V16.5506ZM83.0248 16.5506H83.81V17.334H83.0248V16.5506ZM78.3139 17.334H79.099V18.1175H78.3139V17.334ZM79.8842 18.901H80.6693V19.6845H79.8842V18.901Z" fill="white"/>
<path d="M74.3766 7.14875H73.5914V6.36526H74.3766V7.14875ZM73.5914 7.14875H72.8063V6.36526H73.5914V7.14875ZM75.1617 7.93223H74.3766V7.14875H75.1617V7.93223ZM74.3766 7.93223H73.5914V7.14875H74.3766V7.93223ZM73.5914 7.93223H72.8063V7.14875H73.5914V7.93223ZM72.8063 7.93223H72.0211V7.14875H72.8063V7.93223ZM75.9469 8.71572H75.1617V7.93223H75.9469V8.71572ZM75.1617 8.71572H74.3766V7.93223H75.1617V8.71572ZM75.1617 9.4992H74.3766V8.71572H75.1617V9.4992ZM74.3766 9.4992H73.5914V8.71572H74.3766V9.4992ZM74.3766 8.71572H73.5914V7.93223H74.3766V8.71572ZM73.5914 8.71572H72.8063V7.93223H73.5914V8.71572ZM72.8063 8.71572H72.0211V7.93223H72.8063V8.71572ZM72.8063 9.4992H72.0211V8.71572H72.8063V9.4992ZM72.0211 8.71572H71.236V7.93223H72.0211V8.71572ZM73.5914 9.4992H72.8063V8.71572H73.5914V9.4992ZM74.3766 10.2827H73.5914V9.4992H74.3766V10.2827ZM73.5914 10.2827H72.8063V9.4992H73.5914V10.2827ZM72.8063 10.2827H72.0211V9.4992H72.8063V10.2827ZM72.8063 11.0662H72.0211V10.2827H72.8063V11.0662ZM73.5914 11.0662H72.8063V10.2827H73.5914V11.0662ZM74.3766 11.0662H73.5914V10.2827H74.3766V11.0662ZM74.3766 11.8497H73.5914V11.0662H74.3766V11.8497ZM74.3766 12.6331H73.5914V11.8497H74.3766V12.6331ZM74.3766 13.4166H73.5914V12.6331H74.3766V13.4166ZM74.3766 14.2001H73.5914V13.4166H74.3766V14.2001ZM74.3766 14.9836H73.5914V14.2001H74.3766V14.9836ZM73.5914 14.9836H72.8063V14.2001H73.5914V14.9836ZM72.8063 14.9836H72.0211V14.2001H72.8063V14.9836ZM72.8063 14.2001H72.0211V13.4166H72.8063V14.2001ZM72.8063 13.4166H72.0211V12.6331H72.8063V13.4166ZM72.8063 12.6331H72.0211V11.8497H72.8063V12.6331ZM73.5914 12.6331H72.8063V11.8497H73.5914V12.6331ZM73.5914 11.8497H72.8063V11.0662H73.5914V11.8497ZM73.5914 13.4166H72.8063V12.6331H73.5914V13.4166ZM73.5914 14.2001H72.8063V13.4166H73.5914V14.2001ZM72.8063 11.8497H72.0211V11.0662H72.8063V11.8497ZM72.8063 15.7671H72.0211V14.9836H72.8063V15.7671ZM72.8063 16.5506H72.0211V15.7671H72.8063V16.5506ZM72.8063 17.334H72.0211V16.5506H72.8063V17.334ZM72.8063 18.1175H72.0211V17.334H72.8063V18.1175ZM74.3766 18.901H73.5914V18.1175H74.3766V18.901ZM73.5914 18.1175H72.8063V17.334H73.5914V18.1175ZM73.5914 17.334H72.8063V16.5506H73.5914V17.334ZM73.5914 16.5506H72.8063V15.7671H73.5914V16.5506ZM73.5914 15.7671H72.8063V14.9836H73.5914V15.7671ZM74.3766 15.7671H73.5914V14.9836H74.3766V15.7671ZM74.3766 16.5506H73.5914V15.7671H74.3766V16.5506ZM74.3766 17.334H73.5914V16.5506H74.3766V17.334ZM74.3766 18.1175H73.5914V17.334H74.3766V18.1175ZM73.5914 18.901H72.8063V18.1175H73.5914V18.901ZM75.1617 10.2827H74.3766V9.4992H75.1617V10.2827ZM75.1617 11.0662H74.3766V10.2827H75.1617V11.0662ZM75.1617 11.8497H74.3766V11.0662H75.1617V11.8497ZM75.1617 12.6331H74.3766V11.8497H75.1617V12.6331ZM75.1617 13.4166H74.3766V12.6331H75.1617V13.4166ZM75.1617 14.2001H74.3766V13.4166H75.1617V14.2001ZM75.1617 14.9836H74.3766V14.2001H75.1617V14.9836ZM75.1617 15.7671H74.3766V14.9836H75.1617V15.7671ZM75.1617 16.5506H74.3766V15.7671H75.1617V16.5506ZM75.1617 17.334H74.3766V16.5506H75.1617V17.334ZM75.1617 18.901H74.3766V18.1175H75.1617V18.901ZM75.1617 18.1175H74.3766V17.334H75.1617V18.1175ZM74.3766 19.6845H73.5914V18.901H74.3766V19.6845ZM73.5914 19.6845H72.8063V18.901H73.5914V19.6845ZM75.9469 18.1175H75.1617V17.334H75.9469V18.1175ZM68.0953 7.14875H67.3102V6.36526H68.0953V7.14875ZM67.3102 7.14875H66.525V6.36526H67.3102V7.14875ZM68.8805 7.93223H68.0953V7.14875H68.8805V7.93223ZM68.0953 7.93223H67.3102V7.14875H68.0953V7.93223ZM67.3102 7.93223H66.525V7.14875H67.3102V7.93223ZM66.525 7.93223H65.7399V7.14875H66.525V7.93223ZM68.8805 8.71572H68.0953V7.93223H68.8805V8.71572ZM68.8805 9.4992H68.0953V8.71572H68.8805V9.4992ZM68.0953 9.4992H67.3102V8.71572H68.0953V9.4992ZM68.0953 8.71572H67.3102V7.93223H68.0953V8.71572ZM67.3102 8.71572H66.525V7.93223H67.3102V8.71572ZM66.525 8.71572H65.7399V7.93223H66.525V8.71572ZM66.525 9.4992H65.7399V8.71572H66.525V9.4992ZM65.7399 8.71572H64.9547V7.93223H65.7399V8.71572ZM67.3102 9.4992H66.525V8.71572H67.3102V9.4992ZM68.0953 10.2827H67.3102V9.4992H68.0953V10.2827ZM67.3102 10.2827H66.525V9.4992H67.3102V10.2827ZM66.525 10.2827H65.7399V9.4992H66.525V10.2827ZM66.525 11.0662H65.7399V10.2827H66.525V11.0662ZM67.3102 11.0662H66.525V10.2827H67.3102V11.0662ZM68.0953 11.0662H67.3102V10.2827H68.0953V11.0662ZM68.0953 11.8497H67.3102V11.0662H68.0953V11.8497ZM68.0953 12.6331H67.3102V11.8497H68.0953V12.6331ZM68.0953 13.4166H67.3102V12.6331H68.0953V13.4166ZM68.0953 14.2001H67.3102V13.4166H68.0953V14.2001ZM68.0953 14.9836H67.3102V14.2001H68.0953V14.9836ZM67.3102 14.9836H66.525V14.2001H67.3102V14.9836ZM66.525 14.9836H65.7399V14.2001H66.525V14.9836ZM66.525 14.2001H65.7399V13.4166H66.525V14.2001ZM66.525 13.4166H65.7399V12.6331H66.525V13.4166ZM66.525 12.6331H65.7399V11.8497H66.525V12.6331ZM67.3102 12.6331H66.525V11.8497H67.3102V12.6331ZM67.3102 11.8497H66.525V11.0662H67.3102V11.8497ZM67.3102 13.4166H66.525V12.6331H67.3102V13.4166ZM67.3102 14.2001H66.525V13.4166H67.3102V14.2001ZM66.525 11.8497H65.7399V11.0662H66.525V11.8497ZM66.525 15.7671H65.7399V14.9836H66.525V15.7671ZM66.525 16.5506H65.7399V15.7671H66.525V16.5506ZM66.525 17.334H65.7399V16.5506H66.525V17.334ZM66.525 18.1175H65.7399V17.334H66.525V18.1175ZM68.0953 18.901H67.3102V18.1175H68.0953V18.901ZM67.3102 18.1175H66.525V17.334H67.3102V18.1175ZM67.3102 17.334H66.525V16.5506H67.3102V17.334ZM67.3102 16.5506H66.525V15.7671H67.3102V16.5506ZM67.3102 15.7671H66.525V14.9836H67.3102V15.7671ZM68.0953 15.7671H67.3102V14.9836H68.0953V15.7671ZM68.0953 16.5506H67.3102V15.7671H68.0953V16.5506ZM68.0953 17.334H67.3102V16.5506H68.0953V17.334ZM68.0953 18.1175H67.3102V17.334H68.0953V18.1175ZM67.3102 18.901H66.525V18.1175H67.3102V18.901ZM68.8805 10.2827H68.0953V9.4992H68.8805V10.2827ZM68.8805 11.0662H68.0953V10.2827H68.8805V11.0662ZM68.8805 11.8497H68.0953V11.0662H68.8805V11.8497ZM68.8805 12.6331H68.0953V11.8497H68.8805V12.6331ZM68.8805 13.4166H68.0953V12.6331H68.8805V13.4166ZM68.8805 14.2001H68.0953V13.4166H68.8805V14.2001ZM68.8805 14.9836H68.0953V14.2001H68.8805V14.9836ZM68.8805 15.7671H68.0953V14.9836H68.8805V15.7671ZM68.8805 16.5506H68.0953V15.7671H68.8805V16.5506ZM68.8805 17.334H68.0953V16.5506H68.8805V17.334ZM68.8805 18.901H68.0953V18.1175H68.8805V18.901ZM68.8805 18.1175H68.0953V17.334H68.8805V18.1175ZM64.9547 9.4992H64.1695V8.71572H64.9547V9.4992ZM68.0953 19.6845H67.3102V18.901H68.0953V19.6845ZM67.3102 19.6845H66.525V18.901H67.3102V19.6845ZM69.6656 18.1175H68.8805V17.334H69.6656V18.1175ZM65.7399 18.1175H64.9547V17.334H65.7399V18.1175ZM76.7321 17.334H75.9469V16.5506H76.7321V17.334ZM75.9469 17.334H75.1617V16.5506H75.9469V17.334ZM71.236 18.1175H70.4508V17.334H71.236V18.1175ZM70.4508 18.1175H69.6656V17.334H70.4508V18.1175ZM69.6656 18.901H68.8805V18.1175H69.6656V18.901ZM68.8805 19.6845H68.0953V18.901H68.8805V19.6845ZM72.0211 18.1175H71.236V17.334H72.0211V18.1175ZM69.6656 17.334H68.8805V16.5506H69.6656V17.334ZM76.7321 9.4992H75.9469V8.71572H76.7321V9.4992ZM75.9469 9.4992H75.1617V8.71572H75.9469V9.4992ZM65.7399 9.4992H64.9547V8.71572H65.7399V9.4992ZM64.9547 17.334H64.1695V16.5506H64.9547V17.334ZM65.7399 17.334H64.9547V16.5506H65.7399V17.334ZM72.0211 9.4992H71.236V8.71572H72.0211V9.4992ZM64.9547 18.1175H64.1695V17.334H64.9547V18.1175ZM70.4508 17.334H69.6656V16.5506H70.4508V17.334ZM71.236 17.334H70.4508V16.5506H71.236V17.334ZM72.0211 17.334H71.236V16.5506H72.0211V17.334ZM76.7321 8.71572H75.9469V7.93223H76.7321V8.71572ZM70.4508 7.93223H71.236V8.71572H70.4508V7.93223ZM70.4508 8.71572H71.236V9.4992H70.4508V8.71572ZM72.0211 18.1175H72.8063V18.901H72.0211V18.1175ZM72.0211 18.901H72.8063V19.6845H72.0211V18.901Z" fill="white"/>
<path d="M42.9634 1.66435H43.7486V2.44783H42.9634V1.66435ZM42.1782 2.44783H42.9634V3.23132H42.1782V2.44783ZM42.1782 1.66435H42.9634V2.44783H42.1782V1.66435ZM43.7486 0.0973788H44.5337V0.880861H43.7486V0.0973788ZM43.7486 0.880861H44.5337V1.66435H43.7486V0.880861ZM44.5337 0.880861H45.3189V1.66435H44.5337V0.880861ZM44.5337 0.0973788H45.3189V0.880861H44.5337V0.0973788ZM45.3189 0.0973788H46.104V0.880861H45.3189V0.0973788ZM46.104 0.0973788H46.8892V0.880861H46.104V0.0973788ZM46.104 0.880861H46.8892V1.66435H46.104V0.880861ZM45.3189 0.880861H46.104V1.66435H45.3189V0.880861ZM46.8892 0.0973788H47.6743V0.880861H46.8892V0.0973788ZM47.6743 0.880861H48.4595V1.66435H47.6743V0.880861ZM46.8892 0.880861H47.6743V1.66435H46.8892V0.880861ZM54.7408 0.0973788H55.5259V0.880861H54.7408V0.0973788ZM55.5259 0.0973788H56.3111V0.880861H55.5259V0.0973788ZM55.5259 0.880861H56.3111V1.66435H55.5259V0.880861ZM54.7408 0.880861H55.5259V1.66435H54.7408V0.880861ZM48.4595 1.66435H49.2447V2.44783H48.4595V1.66435ZM49.2447 1.66435H50.0298V2.44783H49.2447V1.66435ZM49.2447 2.44783H50.0298V3.23132H49.2447V2.44783ZM49.2447 3.23132H50.0298V4.0148H49.2447V3.23132ZM49.2447 4.0148H50.0298V4.79829H49.2447V4.0148ZM49.2447 4.79829H50.0298V5.58177H49.2447V4.79829ZM49.2447 5.58177H50.0298V6.36525H49.2447V5.58177ZM48.4595 5.58177H49.2447V6.36525H48.4595V5.58177ZM48.4595 4.79829H49.2447V5.58177H48.4595V4.79829ZM48.4595 4.0148H49.2447V4.79829H48.4595V4.0148ZM48.4595 3.23132H49.2447V4.0148H48.4595V3.23132ZM48.4595 2.44783H49.2447V3.23132H48.4595V2.44783ZM51.6001 1.66435H52.3853V2.44783H51.6001V1.66435ZM52.3853 1.66435H53.1704V2.44783H52.3853V1.66435ZM53.1704 1.66435H53.9556V2.44783H53.1704V1.66435ZM53.9556 1.66435H54.7408V2.44783H53.9556V1.66435ZM53.9556 2.44783H54.7408V3.23132H53.9556V2.44783ZM53.9556 3.23132H54.7408V4.0148H53.9556V3.23132ZM53.9556 4.0148H54.7408V4.79829H53.9556V4.0148ZM53.9556 4.79829H54.7408V5.58177H53.9556V4.79829ZM53.9556 5.58177H54.7408V6.36525H53.9556V5.58177ZM52.3853 5.58177H53.1704V6.36525H52.3853V5.58177ZM51.6001 5.58177H52.3853V6.36525H51.6001V5.58177ZM51.6001 4.79829H52.3853V5.58177H51.6001V4.79829ZM51.6001 4.0148H52.3853V4.79829H51.6001V4.0148ZM51.6001 3.23132H52.3853V4.0148H51.6001V3.23132ZM51.6001 2.44783H52.3853V3.23132H51.6001V2.44783ZM52.3853 2.44783H53.1704V3.23132H52.3853V2.44783ZM53.1704 2.44783H53.9556V3.23132H53.1704V2.44783ZM53.1704 3.23132H53.9556V4.0148H53.1704V3.23132ZM53.1704 4.0148H53.9556V4.79829H53.1704V4.0148ZM53.1704 4.79829H53.9556V5.58177H53.1704V4.79829ZM52.3853 4.79829H53.1704V5.58177H52.3853V4.79829ZM52.3853 4.0148H53.1704V4.79829H52.3853V4.0148ZM52.3853 3.23132H53.1704V4.0148H52.3853V3.23132ZM53.1704 5.58177H53.9556V6.36525H53.1704V5.58177ZM47.6743 6.36525H48.4595V7.14874H47.6743V6.36525ZM46.8892 6.36525H47.6743V7.14874H46.8892V6.36525ZM46.8892 7.14874H47.6743V7.93222H46.8892V7.14874ZM47.6743 7.14874H48.4595V7.93222H47.6743V7.14874ZM46.104 6.36525H46.8892V7.14874H46.104V6.36525ZM45.3189 6.36525H46.104V7.14874H45.3189V6.36525ZM45.3189 7.14874H46.104V7.93222H45.3189V7.14874ZM46.104 7.14874H46.8892V7.93222H46.104V7.14874ZM47.6743 9.49919H48.4595V10.2827H47.6743V9.49919ZM46.8892 9.49919H47.6743V10.2827H46.8892V9.49919ZM46.8892 10.2827H47.6743V11.0662H46.8892V10.2827ZM47.6743 10.2827H48.4595V11.0662H47.6743V10.2827ZM46.104 9.49919H46.8892V10.2827H46.104V9.49919ZM45.3189 9.49919H46.104V10.2827H45.3189V9.49919ZM45.3189 10.2827H46.104V11.0662H45.3189V10.2827ZM46.104 10.2827H46.8892V11.0662H46.104V10.2827ZM48.4595 6.36525H49.2447V7.14874H48.4595V6.36525ZM48.4595 7.14874H49.2447V7.93222H48.4595V7.14874ZM48.4595 7.93222H49.2447V8.71571H48.4595V7.93222ZM48.4595 8.71571H49.2447V9.49919H48.4595V8.71571ZM48.4595 9.49919H49.2447V10.2827H48.4595V9.49919ZM48.4595 10.2827H49.2447V11.0662H48.4595V10.2827ZM48.4595 11.0662H49.2447V11.8496H48.4595V11.0662ZM49.2447 11.0662H50.0298V11.8496H49.2447V11.0662ZM49.2447 10.2827H50.0298V11.0662H49.2447V10.2827ZM49.2447 9.49919H50.0298V10.2827H49.2447V9.49919ZM49.2447 8.71571H50.0298V9.49919H49.2447V8.71571ZM49.2447 7.93222H50.0298V8.71571H49.2447V7.93222ZM49.2447 7.14874H50.0298V7.93222H49.2447V7.14874ZM49.2447 6.36525H50.0298V7.14874H49.2447V6.36525ZM48.4595 11.8496H49.2447V12.6331H48.4595V11.8496ZM49.2447 11.8496H50.0298V12.6331H49.2447V11.8496ZM48.4595 12.6331H49.2447V13.4166H48.4595V12.6331ZM49.2447 12.6331H50.0298V13.4166H49.2447V12.6331ZM49.2447 13.4166H50.0298V14.2001H49.2447V13.4166ZM48.4595 13.4166H49.2447V14.2001H48.4595V13.4166ZM51.6001 6.36525H52.3853V7.14874H51.6001V6.36525ZM51.6001 7.14874H52.3853V7.93222H51.6001V7.14874ZM51.6001 7.93222H52.3853V8.71571H51.6001V7.93222ZM51.6001 8.71571H52.3853V9.49919H51.6001V8.71571ZM51.6001 9.49919H52.3853V10.2827H51.6001V9.49919ZM51.6001 10.2827H52.3853V11.0662H51.6001V10.2827ZM51.6001 11.0662H52.3853V11.8496H51.6001V11.0662ZM51.6001 11.8496H52.3853V12.6331H51.6001V11.8496ZM51.6001 12.6331H52.3853V13.4166H51.6001V12.6331ZM51.6001 13.4166H52.3853V14.2001H51.6001V13.4166ZM52.3853 13.4166H53.1704V14.2001H52.3853V13.4166ZM52.3853 12.6331H53.1704V13.4166H52.3853V12.6331ZM53.1704 11.8496H53.9556V12.6331H53.1704V11.8496ZM53.9556 11.8496H54.7408V12.6331H53.9556V11.8496ZM53.9556 11.0662H54.7408V11.8496H53.9556V11.0662ZM53.1704 11.0662H53.9556V11.8496H53.1704V11.0662ZM52.3853 11.8496H53.1704V12.6331H52.3853V11.8496ZM52.3853 11.0662H53.1704V11.8496H52.3853V11.0662ZM52.3853 10.2827H53.1704V11.0662H52.3853V10.2827ZM52.3853 9.49919H53.1704V10.2827H52.3853V9.49919ZM52.3853 8.71571H53.1704V9.49919H52.3853V8.71571ZM52.3853 7.93222H53.1704V8.71571H52.3853V7.93222ZM52.3853 7.14874H53.1704V7.93222H52.3853V7.14874ZM52.3853 6.36525H53.1704V7.14874H52.3853V6.36525ZM53.1704 6.36525H53.9556V7.14874H53.1704V6.36525ZM53.9556 6.36525H54.7408V7.14874H53.9556V6.36525ZM53.9556 7.14874H54.7408V7.93222H53.9556V7.14874ZM53.9556 7.93222H54.7408V8.71571H53.9556V7.93222ZM53.1704 7.93222H53.9556V8.71571H53.1704V7.93222ZM53.1704 8.71571H53.9556V9.49919H53.1704V8.71571ZM53.1704 9.49919H53.9556V10.2827H53.1704V9.49919ZM53.1704 10.2827H53.9556V11.0662H53.1704V10.2827ZM53.1704 7.14874H53.9556V7.93222H53.1704V7.14874ZM53.9556 9.49919H54.7408V10.2827H53.9556V9.49919ZM53.9556 10.2827H54.7408V11.0662H53.9556V10.2827ZM53.9556 8.71571H54.7408V9.49919H53.9556V8.71571ZM45.3189 18.901H46.104V19.6845H45.3189V18.901ZM45.3189 18.1175H46.104V18.901H45.3189V18.1175ZM46.104 18.1175H46.8892V18.901H46.104V18.1175ZM46.8892 17.334H47.6743V18.1175H46.8892V17.334ZM46.8892 16.5506H47.6743V17.334H46.8892V16.5506ZM47.6743 16.5506H48.4595V17.334H47.6743V16.5506ZM47.6743 17.334H48.4595V18.1175H47.6743V17.334ZM48.4595 17.334H49.2447V18.1175H48.4595V17.334ZM49.2447 17.334H50.0298V18.1175H49.2447V17.334ZM50.0298 17.334H50.815V18.1175H50.0298V17.334ZM51.6001 17.334H52.3853V18.1175H51.6001V17.334ZM52.3853 16.5506H53.1704V17.334H52.3853V16.5506ZM51.6001 16.5506H52.3853V17.334H51.6001V16.5506ZM50.0298 16.5506H50.815V17.334H50.0298V16.5506ZM49.2447 16.5506H50.0298V17.334H49.2447V16.5506ZM48.4595 16.5506H49.2447V17.334H48.4595V16.5506ZM53.1704 16.5506H53.9556V17.334H53.1704V16.5506ZM53.9556 17.334H54.7408V18.1175H53.9556V17.334ZM54.7408 17.334H55.5259V18.1175H54.7408V17.334ZM55.5259 17.334H56.3111V18.1175H55.5259V17.334ZM53.1704 17.334H53.9556V18.1175H53.1704V17.334ZM52.3853 17.334H53.1704V18.1175H52.3853V17.334ZM54.7408 16.5506H55.5259V17.334H54.7408V16.5506ZM53.9556 16.5506H54.7408V17.334H53.9556V16.5506ZM55.5259 16.5506H56.3111V17.334H55.5259V16.5506ZM54.7408 7.93222H55.5259V8.71571H54.7408V7.93222ZM55.5259 8.71571H56.3111V9.49919H55.5259V8.71571ZM55.5259 7.93222H56.3111V8.71571H55.5259V7.93222ZM57.0962 0.0973788H57.8814V0.880861H57.0962V0.0973788ZM57.0962 0.880861H57.8814V1.66435H57.0962V0.880861ZM56.3111 0.880861H57.0962V1.66435H56.3111V0.880861ZM57.8814 0.0973788H58.6665V0.880861H57.8814V0.0973788ZM57.8814 0.880861H58.6665V1.66435H57.8814V0.880861ZM58.6665 0.0973788H59.4517V0.880861H58.6665V0.0973788ZM58.6665 0.880861H59.4517V1.66435H58.6665V0.880861ZM59.4517 0.880861H60.2369V1.66435H59.4517V0.880861ZM59.4517 0.0973788H60.2369V0.880861H59.4517V0.0973788ZM59.4517 1.66435H60.2369V2.44783H59.4517V1.66435ZM58.6665 1.66435H59.4517V2.44783H58.6665V1.66435ZM59.4517 2.44783H60.2369V3.23132H59.4517V2.44783ZM58.6665 2.44783H59.4517V3.23132H58.6665V2.44783ZM60.2369 1.66435H61.022V2.44783H60.2369V1.66435ZM61.022 1.66435H61.8072V2.44783H61.022V1.66435ZM61.022 2.44783H61.8072V3.23132H61.022V2.44783ZM60.2369 2.44783H61.022V3.23132H60.2369V2.44783ZM61.022 3.23132H61.8072V4.0148H61.022V3.23132ZM60.2369 3.23132H61.022V4.0148H60.2369V3.23132ZM59.4517 4.0148H60.2369V4.79829H59.4517V4.0148ZM60.2369 4.0148H61.022V4.79829H60.2369V4.0148ZM61.022 4.0148H61.8072V4.79829H61.022V4.0148ZM61.022 4.79829H61.8072V5.58177H61.022V4.79829ZM60.2369 4.79829H61.022V5.58177H60.2369V4.79829ZM60.2369 5.58177H61.022V6.36525H60.2369V5.58177ZM61.022 5.58177H61.8072V6.36525H61.022V5.58177ZM59.4517 3.23132H60.2369V4.0148H59.4517V3.23132ZM58.6665 4.0148H59.4517V4.79829H58.6665V4.0148ZM58.6665 3.23132H59.4517V4.0148H58.6665V3.23132ZM58.6665 4.79829H59.4517V5.58177H58.6665V4.79829ZM58.6665 5.58177H59.4517V6.36525H58.6665V5.58177ZM59.4517 5.58177H60.2369V6.36525H59.4517V5.58177ZM59.4517 4.79829H60.2369V5.58177H59.4517V4.79829ZM59.4517 6.36525H60.2369V7.14874H59.4517V6.36525ZM59.4517 7.14874H60.2369V7.93222H59.4517V7.14874ZM58.6665 6.36525H59.4517V7.14874H58.6665V6.36525ZM58.6665 7.14874H59.4517V7.93222H58.6665V7.14874ZM57.8814 7.93222H58.6665V8.71571H57.8814V7.93222ZM57.0962 7.93222H57.8814V8.71571H57.0962V7.93222ZM56.3111 7.93222H57.0962V8.71571H56.3111V7.93222ZM57.0962 8.71571H57.8814V9.49919H57.0962V8.71571ZM57.8814 8.71571H58.6665V9.49919H57.8814V8.71571ZM59.4517 9.49919H60.2369V10.2827H59.4517V9.49919ZM60.2369 9.49919H61.022V10.2827H60.2369V9.49919ZM61.8072 11.0662H62.5923V11.8496H61.8072V11.0662ZM61.8072 11.8496H62.5923V12.6331H61.8072V11.8496ZM61.022 11.8496H61.8072V12.6331H61.022V11.8496ZM60.2369 11.8496H61.022V12.6331H60.2369V11.8496ZM59.4517 11.8496H60.2369V12.6331H59.4517V11.8496ZM59.4517 11.0662H60.2369V11.8496H59.4517V11.0662ZM59.4517 10.2827H60.2369V11.0662H59.4517V10.2827ZM60.2369 10.2827H61.022V11.0662H60.2369V10.2827ZM61.022 11.0662H61.8072V11.8496H61.022V11.0662ZM60.2369 11.0662H61.022V11.8496H60.2369V11.0662ZM61.022 10.2827H61.8072V11.0662H61.022V10.2827ZM59.4517 12.6331H60.2369V13.4166H59.4517V12.6331ZM60.2369 12.6331H61.022V13.4166H60.2369V12.6331ZM61.022 12.6331H61.8072V13.4166H61.022V12.6331ZM61.8072 12.6331H62.5923V13.4166H61.8072V12.6331ZM61.8072 13.4166H62.5923V14.2001H61.8072V13.4166ZM61.022 13.4166H61.8072V14.2001H61.022V13.4166ZM60.2369 13.4166H61.022V14.2001H60.2369V13.4166ZM59.4517 13.4166H60.2369V14.2001H59.4517V13.4166ZM59.4517 14.2001H60.2369V14.9836H59.4517V14.2001ZM60.2369 14.2001H61.022V14.9836H60.2369V14.2001ZM61.022 14.2001H61.8072V14.9836H61.022V14.2001ZM61.8072 14.2001H62.5923V14.9836H61.8072V14.2001ZM61.8072 14.9836H62.5923V15.7671H61.8072V14.9836ZM61.022 14.9836H61.8072V15.7671H61.022V14.9836ZM60.2369 14.9836H61.022V15.7671H60.2369V14.9836ZM59.4517 14.9836H60.2369V15.7671H59.4517V14.9836ZM48.4595 14.2001H49.2447V14.9836H48.4595V14.2001ZM49.2447 14.2001H50.0298V14.9836H49.2447V14.2001ZM51.6001 14.2001H52.3853V14.9836H51.6001V14.2001ZM52.3853 14.2001H53.1704V14.9836H52.3853V14.2001ZM53.1704 12.6331H53.9556V13.4166H53.1704V12.6331ZM53.9556 12.6331H54.7408V13.4166H53.9556V12.6331ZM59.4517 15.7671H60.2369V16.5506H59.4517V15.7671ZM60.2369 15.7671H61.022V16.5506H60.2369V15.7671ZM61.022 15.7671H61.8072V16.5506H61.022V15.7671ZM58.6665 16.5506H59.4517V17.334H58.6665V16.5506ZM58.6665 17.334H59.4517V18.1175H58.6665V17.334ZM57.8814 17.334H58.6665V18.1175H57.8814V17.334ZM57.0962 17.334H57.8814V18.1175H57.0962V17.334ZM56.3111 17.334H57.0962V18.1175H56.3111V17.334ZM56.3111 16.5506H57.0962V17.334H56.3111V16.5506ZM57.0962 16.5506H57.8814V17.334H57.0962V16.5506ZM57.8814 16.5506H58.6665V17.334H57.8814V16.5506ZM55.5259 18.1175H56.3111V18.901H55.5259V18.1175ZM54.7408 18.1175H55.5259V18.901H54.7408V18.1175ZM54.7408 18.901H55.5259V19.6845H54.7408V18.901ZM55.5259 18.901H56.3111V19.6845H55.5259V18.901ZM53.9556 18.1175H54.7408V18.901H53.9556V18.1175ZM53.1704 18.1175H53.9556V18.901H53.1704V18.1175ZM53.1704 18.901H53.9556V19.6845H53.1704V18.901ZM53.9556 18.901H54.7408V19.6845H53.9556V18.901ZM60.2369 6.36525H61.022V7.14874H60.2369V6.36525ZM58.6665 7.93222H59.4517V8.71571H58.6665V7.93222ZM60.2369 0.880861H61.022V1.66435H60.2369V0.880861ZM53.9556 0.880861H54.7408V1.66435H53.9556V0.880861ZM54.7408 1.66435H55.5259V2.44783H54.7408V1.66435ZM42.9634 0.880861H43.7486V1.66435H42.9634V0.880861ZM46.104 17.334H46.8892V18.1175H46.104V17.334ZM52.3853 18.1175H53.1704V18.901H52.3853V18.1175ZM56.3111 18.1175H57.0962V18.901H56.3111V18.1175ZM59.4517 16.5506H60.2369V17.334H59.4517V16.5506ZM53.1704 13.4166H53.9556V14.2001H53.1704V13.4166ZM47.6743 1.66435H48.4595V2.44783H47.6743V1.66435ZM57.8814 1.66435H58.6665V2.44783H57.8814V1.66435ZM58.6665 15.7671H59.4517V16.5506H58.6665V15.7671ZM54.7408 8.71571H55.5259V9.49919H54.7408V8.71571ZM57.8814 18.1175H58.6665V18.901H57.8814V18.1175ZM57.0962 18.1175H57.8814V18.901H57.0962V18.1175ZM57.0962 18.901H57.8814V19.6845H57.0962V18.901ZM56.3111 18.901H57.0962V19.6845H56.3111V18.901ZM57.8814 7.14874H58.6665V7.93222H57.8814V7.14874ZM50.815 16.5506H51.6001V17.334H50.815V16.5506ZM50.815 17.334H51.6001V18.1175H50.815V17.334ZM50.0298 0.880861H50.815V1.66435H50.0298V0.880861ZM50.0298 0.0973788H50.815V0.880861H50.0298V0.0973788ZM50.815 0.0973788H51.6001V0.880861H50.815V0.0973788ZM50.815 0.880861H51.6001V1.66435H50.815V0.880861ZM49.2447 0.880861H50.0298V1.66435H49.2447V0.880861ZM51.6001 0.880861H52.3853V1.66435H51.6001V0.880861ZM56.3111 0.0973788H57.0962V0.880861H56.3111V0.0973788ZM56.3111 8.71571H57.0962V9.49919H56.3111V8.71571ZM58.6665 9.49919H59.4517V10.2827H58.6665V9.49919ZM61.022 9.49919H61.8072V10.2827H61.022V9.49919ZM61.8072 10.2827H62.5923V11.0662H61.8072V10.2827ZM58.6665 8.71571H59.4517V9.49919H58.6665V8.71571ZM59.4517 8.71571H60.2369V9.49919H59.4517V8.71571ZM60.2369 8.71571H61.022V9.49919H60.2369V8.71571Z" fill="white"/>
</g>
<defs>
<filter id="filter0_n_2288_276" x="0" y="0" width="105" height="24" filterUnits="userSpaceOnUse" color-interpolation-filters="sRGB">
<feFlood flood-opacity="0" result="BackgroundImageFix"/>
<feBlend mode="normal" in="SourceGraphic" in2="BackgroundImageFix" result="shape"/>
<feTurbulence type="fractalNoise" baseFrequency="1 1" stitchTiles="stitch" numOctaves="3" result="noise" seed="1902" />
<feColorMatrix in="noise" type="luminanceToAlpha" result="alphaNoise" />
<feComponentTransfer in="alphaNoise" result="coloredNoise1">
<feFuncA type="discrete" tableValues="1 1 1 1 1 1 1 1 1 1 1 1 1 1 1 1 1 1 1 1 1 1 1 1 1 1 1 1 1 1 1 1 1 1 1 1 1 1 1 1 1 1 1 1 1 1 1 1 1 1 1 0 0 0 0 0 0 0 0 0 0 0 0 0 0 0 0 0 0 0 0 0 0 0 0 0 0 0 0 0 0 0 0 0 0 0 0 0 0 0 0 0 0 0 0 0 0 0 0 0 "/>
</feComponentTransfer>
<feComposite operator="in" in2="shape" in="coloredNoise1" result="noise1Clipped" />
<feFlood flood-color="rgba(0, 0, 0, 0.05)" result="color1Flood" />
<feComposite operator="in" in2="noise1Clipped" in="color1Flood" result="color1" />
<feMerge result="effect1_noise_2288_276">
<feMergeNode in="shape" />
<feMergeNode in="color1" />
</feMerge>
</filter>
</defs>
</svg>
