<svg xmlns="http://www.w3.org/2000/svg" viewBox="0 0 567.89 316.3301"><title>Surge</title><path fill="#8200ff" d="M375.05,55.45l5.5699-34.3899L32.39,116.1399,0,316.3301l302.1801-81.79-5.5601,34.3899,238.88-68.74L567.89,0l-192.84,55.45ZM140.82,154.3699l-.78,5.5901-29.81,8.0901.82-5.8201c1.6-11.4099-1.32-16-9.64-13.74-7.16,1.9399-11.55,7.8701-12.61,15.47-1.01,7.1599,2.52,10.51,8.96,12.2102l12.62,3.46c17.77,4.8599,27.94,11.5698,24.87,33.4897-3.83,27.29-23.13,46.0901-49.0099,53.1101-25.88,7.02-41.5-2.0901-37.27-32.29l.76-5.3599,29.81-8.0901-.79,5.5901c-1.47,10.51,2.1801,16.2,11.19,13.75,7.85-2.1301,12.61-7.51,13.71-15.3401,1.13-8.05-3.75-9.74-11.87-12.0601l-11.34-3.1599c-14.32-4.0801-26.31-10.51-22.92-34.6699,3.51-25.05,22.64-45.74,47.6-52.51,26.57-7.21,39.75,3.4199,35.7,32.2798ZM183.02,240.1899c-35.82,9.7102-43.79-7.9199-39.34-39.6899l12.71-90.5999,34.89-9.4602-13.08,93.28c-2.01,14.3201-1.78,22.22,8.62,19.3999,10.39-2.8198,12.94-11.4697,14.95-25.7898l13.08-93.28,34.89-9.47-12.7,90.5999c-4.46,31.76-18.2,55.29-54.02,65.01ZM329.46,167.53c-1.45,18.26-2.68,25.48-.36,31.0898l-33.5,9.0901c-1.1-4.8699-.4-13.02,1.06-29.77,1.19-13.23-1.3-19.23-11.93-16.3499l-4.39,1.2-7.16,51-33.5,9.0901,19.7599-140.9302,41.83-11.3499c32.58-8.8401,44.82,3.7698,41.3,28.8201-3.1,22.1499-15.04,35.9299-30.17,42.3999,14.78-.78,18.39,8.3599,17.06,25.71ZM399.73,207.72l-.79-11.8398c-5.04,10.6299-16.1,18.1399-27.65,21.2798-28.89,7.8301-38.03-10.9897-32.35-51.48l2.7-19.24c5.68-40.49,22.42-66.3298,55.69-75.3599,33.04-8.9602,42.24,7.9099,37.62,40.7898l-.5,3.5801-33.04,8.9702,1.32-9.4001c1.75-12.53.8-20.01-9.13-17.3201-9.94,2.7002-13.15,11.3101-14.9,23.8401l-6.94,49.4399c-1.75,12.53-.11,19.8301,9.59,17.1902,9.94-2.6902,13.61-11.4302,15.37-23.9602l.28-2.01-10.63,2.8801,3.45-24.6101,42.75-11.5898-10.2,72.7-22.64,6.1399ZM521.76,65.0901l-40.44,10.97-4.05,28.8499,30.04-8.1499-3.7599,26.8501-30.04,8.1499-4.36,31.0901,40.43-10.97-3.79,27.0698-73.71,20,19.76-140.9399,73.71-19.99-3.79,27.0701ZM292.48,98.3801l-3.23.8699-5.27,37.5901,3.23-.8801c13.64-3.7,19.55-9.3899,21.55-23.71,1.79-12.75-2.64-17.5701-16.28-13.8699Z"/><polygon fill="#fff" points="481.32 76.0601 477.27 104.9099 507.31 96.76 503.55 123.6101 473.51 131.76 469.15 162.8501 509.58 151.8801 505.79 178.95 432.08 198.95 451.84 58.01 525.55 38.02 521.76 65.0901 481.32 76.0601"/><path fill="#fff" d="M434.95,111.8699l-.5,3.5801-33.04,8.9702,1.32-9.4001c1.75-12.53.8-20.01-9.13-17.3201-9.94,2.7002-13.15,11.3101-14.9,23.8401l-6.94,49.4399c-1.75,12.53-.11,19.8301,9.59,17.1902,9.94-2.6902,13.61-11.4302,15.37-23.9602l.28-2.01-10.63,2.8801,3.45-24.6101,42.75-11.5898-10.2,72.7-22.64,6.1399-.79-11.8398c-5.04,10.6299-16.1,18.1399-27.65,21.2798-28.89,7.8301-38.03-10.9897-32.35-51.48l2.7-19.24c5.68-40.49,22.42-66.3298,55.69-75.3599,33.04-8.9602,42.24,7.9099,37.62,40.7898Z"/><path fill="#fff" d="M342.57,99.4202c3.52-25.0503-8.72-37.6602-41.3-28.8201l-41.83,11.3499-19.7599,140.9302,33.5-9.0901,7.16-51,4.39-1.2c10.63-2.8801,13.12,3.1199,11.93,16.3499-1.46,16.75-2.16,24.9001-1.06,29.77l33.5-9.0901c-2.32-5.6099-1.09-12.8298.36-31.0898,1.33-17.3501-2.28-26.49-17.06-25.71,15.13-6.47,27.07-20.25,30.17-42.3999ZM308.76,112.25c-2,14.3201-7.91,20.01-21.55,23.71l-3.23.8801,5.27-37.5901,3.23-.8699c13.64-3.7002,18.07,1.1199,16.28,13.8699Z"/><path fill="#fff" d="M249.7401,84.5801l-12.7,90.5999c-4.46,31.76-18.2,55.29-54.02,65.01-35.82,9.7102-43.79-7.9199-39.34-39.6899l12.71-90.5999,34.89-9.4602-13.08,93.28c-2.01,14.3201-1.78,22.22,8.62,19.3999,10.39-2.8198,12.94-11.4697,14.95-25.7898l13.08-93.28,34.89-9.47Z"/><path fill="#fff" d="M140.82,154.3699l-.78,5.5901-29.81,8.0901.82-5.8201c1.6-11.4099-1.32-16-9.64-13.74-7.16,1.9399-11.55,7.8701-12.61,15.47-1.01,7.1599,2.52,10.51,8.96,12.2102l12.62,3.46c17.77,4.8599,27.94,11.5698,24.87,33.4897-3.83,27.29-23.13,46.0901-49.0099,53.1101-25.88,7.02-41.5-2.0901-37.27-32.29l.76-5.3599,29.81-8.0901-.79,5.5901c-1.47,10.51,2.1801,16.2,11.19,13.75,7.85-2.1301,12.61-7.51,13.71-15.3401,1.13-8.05-3.75-9.74-11.87-12.0601l-11.34-3.1599c-14.32-4.0801-26.31-10.51-22.92-34.6699,3.51-25.05,22.64-45.74,47.6-52.51,26.57-7.21,39.75,3.4199,35.7,32.2798Z"/></svg>
