<svg width="92" height="91" viewBox="0 0 92 91" fill="none" xmlns="http://www.w3.org/2000/svg">
<g clip-path="url(#clip0_147_841)">
<path d="M17.7159 36.2619L6.17309 26.4845L8.50534 19.5393L29.1438 26.5298L27.5306 31.313L11.9123 26.0274L25.5038 37.3901L24.3719 40.717L6.84445 41.4418L22.3345 46.6875L20.8061 51.2411L0.167593 44.2506L2.60744 36.9693L17.7159 36.2619Z" fill="black"/>
<path d="M53.4019 18.3912L43.0399 18.2725L41.3473 22.0457L36.1021 21.9832L45.8793 0.200701L51.214 0.257925L60.5075 22.2368L54.9885 22.1788L53.4019 18.3912ZM51.5834 13.9967L48.3553 6.23039L44.9696 13.9226L51.5834 13.9967Z" fill="black"/>
<path d="M74.3177 48.6223L68.9306 31.3163L89.7126 24.7947L91.2659 29.7883L74.8753 34.9325L78.7313 47.2451L74.3177 48.6223Z" fill="black"/>
<path d="M82.8435 78.7313L72.5883 86.0398C68.7103 88.8274 65.3158 88.3749 63.2115 85.4375C62.6671 84.6533 62.3735 83.7211 62.3698 82.7652C62.366 81.8092 62.6523 80.8747 63.1905 80.0862C62.0864 80.4222 60.9034 80.3879 59.8206 79.9884C58.7377 79.5889 57.814 78.8459 57.1894 77.8721C55.002 74.7829 55.7103 71.2578 59.8123 68.3479L70.2412 60.9167L82.8435 78.7313ZM71.3182 71.3099L68.498 67.3204L62.995 71.2226C61.2409 72.4714 60.8384 73.8158 61.7599 75.1437C62.6813 76.4715 64.0666 76.4889 65.8151 75.2401L71.3182 71.3099ZM76.2369 78.2703L73.7498 74.7535L68.3476 78.6C66.8962 79.6369 66.4386 80.796 67.288 82.0002C68.1373 83.2043 69.3553 83.1704 70.8347 82.1168L76.2369 78.2703Z" fill="black"/>
<path d="M23.5393 71.1325L16.4415 80.7155L12.3045 77.629L19.6102 67.772C22.9426 63.2993 28.4571 61.8709 33.9192 65.9449C39.5261 70.1373 39.7082 75.7194 36.3419 80.2649L29.0362 90.1218L24.8547 87.0014L31.9748 77.4129C33.9699 74.7237 33.804 71.8117 31.098 69.7748C28.392 67.7379 25.5343 68.4377 23.5393 71.1325Z" fill="black"/>
</g>
<defs>
<clipPath id="clip0_147_841">
<rect width="91" height="90" fill="white" transform="translate(0.396484) rotate(0.252962)"/>
</clipPath>
</defs>
</svg>
