<?xml version="1.0" encoding="UTF-8"?><svg xmlns="http://www.w3.org/2000/svg" viewBox="0 0 274.03 30.24"><defs><style>.d{fill:#000;}</style></defs><g id="a"/><g id="b"><g id="c"><g><path class="d" d="M0,1.57V.68H14.09c2.57,0,4.71,.61,6.43,1.84,1.71,1.23,2.57,2.89,2.57,4.99,0,1.4-.31,2.68-.92,3.83-.62,1.15-1.43,2.08-2.46,2.8-1.02,.72-2.17,1.28-3.45,1.67-1.28,.39-2.6,.58-3.98,.58h-3.27v9.67c0,1.07,.44,1.77,1.32,2.1,.27,.1,.76,.19,1.45,.29,.7,.1,1.32,.16,1.87,.19v.93H.16v-.93c.43-.03,.98-.09,1.65-.19,.67-.1,1.14-.19,1.4-.29,.87-.32,1.3-1.02,1.3-2.11V4.32c0-1.16-.43-1.87-1.3-2.15-1.09-.35-2.16-.55-3.22-.61M9,15.07h2.09c1.16,0,2.17-.17,3.04-.5,.87-.33,1.55-.73,2.01-1.2,.47-.47,.85-1.03,1.13-1.67,.29-.64,.48-1.2,.56-1.69,.08-.48,.12-.97,.12-1.45,0-.87-.1-1.68-.29-2.42-.19-.75-.51-1.45-.94-2.12s-1.07-1.2-1.9-1.59c-.83-.39-1.82-.59-2.96-.59h-2.87V15.07Z"/><path class="d" d="M47.78,29.56v-.87c.47-.04,1.07-.11,1.81-.21,.74-.1,1.25-.21,1.54-.32,.87-.32,1.3-1.01,1.3-2.07V4.44c0-.51-.09-.93-.28-1.27-.19-.34-.53-.6-1.02-.8-.4-.17-.96-.33-1.68-.49-.72-.16-1.28-.25-1.66-.28V.68h23.29V7.25h-1.13c-.26-1.02-.87-2.12-1.82-3.3-.95-1.18-1.85-1.83-2.7-1.94-.9-.11-2.06-.16-3.51-.16h-5V14.04h3.67c.73,0,1.36-.09,1.89-.26,.53-.17,.87-.32,1.02-.45s.36-.33,.64-.6c.29-.29,.56-.86,.83-1.7,.26-.84,.43-1.58,.49-2.24h1.14v11.85h-1.14c-.04-.62-.21-1.4-.51-2.33-.3-.93-.57-1.53-.81-1.81-.25-.26-.47-.47-.67-.62-.2-.15-.55-.31-1.05-.46-.5-.15-1.11-.23-1.83-.23h-3.67v9.33c0,.73,.04,1.32,.12,1.75,.08,.43,.22,.81,.4,1.11,.19,.3,.49,.53,.91,.66,.42,.14,.89,.23,1.42,.28,.53,.05,1.26,.07,2.18,.07h.6c1.21,0,2.13,0,2.75-.03,.62-.02,1.3-.11,2.04-.26,.74-.15,1.26-.38,1.55-.69,.58-.61,1.24-1.58,1.97-2.91,.74-1.33,1.22-2.35,1.46-3.07h1.05l-.56,8.11h-25.02Z"/><path class="d" d="M99.18,29.56v-.95c.43-.03,.98-.09,1.65-.18,.67-.09,1.14-.19,1.4-.29,.87-.32,1.3-1.02,1.3-2.1V4.54c0-1.03-.43-1.74-1.3-2.13-1.13-.48-2.15-.75-3.06-.81V.68h13.23v.93c-.98,.05-2,.26-3.08,.6-.88,.28-1.32,.98-1.32,2.1V24.51c0,.55,.02,1,.05,1.35,.03,.35,.08,.68,.14,.99,.06,.31,.18,.54,.36,.71,.18,.16,.37,.31,.58,.44,.21,.13,.51,.22,.92,.27,.41,.05,.83,.08,1.26,.1s1.01,.03,1.72,.03c3.44,0,5.51-.37,6.21-1.11,.58-.63,1.29-1.6,2.13-2.92,.84-1.32,1.36-2.32,1.55-3.01h1.01l-.62,8.2h-24.15Z"/><path class="d" d="M149.28,29.56v-.93c1.5-.08,2.53-.23,3.1-.43,.87-.32,1.3-.99,1.3-2.02V4.4c0-.51-.09-.93-.28-1.25-.19-.32-.53-.58-1.02-.77-1.23-.47-2.26-.72-3.1-.77V.68h13.27v.93c-1.09,.05-2.11,.24-3.08,.56-.88,.27-1.32,.95-1.32,2.02V25.97c0,.98,.44,1.65,1.32,2.02,.27,.11,.76,.24,1.47,.39,.7,.15,1.24,.23,1.61,.25v.93h-13.27Z"/><path class="d" d="M187.64,15.44c0-4.64,1.36-8.32,4.09-11.04,2.89-2.93,6.46-4.4,10.71-4.4s7.73,1.47,10.75,4.4c1.25,1.25,2.24,2.8,2.95,4.65,.71,1.85,1.07,3.81,1.07,5.87,0,4.67-1.47,8.42-4.4,11.25-2.93,2.71-6.45,4.07-10.54,4.07s-7.27-1.33-10.09-3.99c-3.01-2.83-4.52-6.44-4.52-10.82m5.12-.21c0,1.91,.2,3.69,.6,5.33,.4,1.64,.99,3.08,1.76,4.34s1.79,2.24,3.04,2.95c1.25,.72,2.68,1.07,4.27,1.07,2.12,0,3.91-.62,5.39-1.85,1.47-1.23,2.55-2.87,3.23-4.91,.68-2.04,1.02-4.41,1.02-7.09,0-1.43-.11-2.79-.32-4.09-.21-1.29-.56-2.54-1.05-3.73-.49-1.19-1.1-2.22-1.83-3.09-.73-.87-1.64-1.56-2.75-2.07-1.1-.52-2.33-.77-3.69-.77-3.01,0-5.38,1.23-7.1,3.68-1.72,2.46-2.58,5.86-2.58,10.23"/><path class="d" d="M240.8,1.61V.68h8.71l17.67,22.23V8.59c0-3.19-.47-5.09-1.43-5.7-.4-.25-1.09-.51-2.08-.8-.99-.29-1.73-.45-2.23-.48V.68h12.59v.93c-.41,.03-1.08,.16-2.01,.4-.93,.24-1.55,.46-1.87,.65-.94,.59-1.4,2.48-1.4,5.68V29.85h-1.57l-18.93-23.84v15.48c0,3.07,.47,5,1.43,5.78,.33,.28,1.02,.57,2.08,.87,1.06,.3,1.82,.47,2.27,.5v.93h-12.68v-.93c.39-.03,1.08-.18,2.08-.46,1-.28,1.61-.51,1.85-.67,.5-.36,.85-1,1.07-1.92,.22-.92,.33-2.21,.33-3.88V6.81c0-.63-.12-1.27-.37-1.9-.25-.63-.58-1.11-.99-1.45-.52-.41-1.27-.82-2.24-1.23-.97-.41-1.73-.62-2.28-.63"/></g></g></g></svg>