<?xml version="1.0" encoding="UTF-8"?>
<svg id="Layer_1" xmlns="http://www.w3.org/2000/svg" version="1.1" viewBox="0 0 594 206">
  <!-- Generator: Adobe Illustrator 29.6.0, SVG Export Plug-In . SVG Version: 2.1.1 Build 207)  -->
  <defs>
    <style>
      .st0 {
        fill: #031b04;
      }
    </style>
  </defs>
  <path class="st0" d="M388.7,203.8h.7c3.8-.7,7.6-1.2,11.4-1.4,3.7-.2,7.5-.4,11.4-.4s7.6.1,11.4.4,7.5.7,11.4,1.4h.4V61l-46.5,36v106.7h0Z"/>
  <path class="st0" d="M584.2,178.1c-3.5,2.2-6.8,3.2-9.9,3.2s-4.9-.9-6.8-2.7c-1.9-1.8-2.9-4.7-2.9-8.8V39.7c0-5.8-1.2-10.8-3.6-15.1-2.4-4.3-5.7-8-9.7-11-4.1-3-8.8-5.3-14.2-6.8s-11.2-2.3-17.5-2.3-17.5,1.6-26.7,4.7c-9.1,3.1-17.8,7.8-26,14.1l-31.7,24.5-46.5,36.1-31,23.8V6c0-.3-.2-.6-.6-.6h0c-.1,0-.2,0-.3,0-9.1,5.7-18.8,10.7-29.2,14.9-10.5,4.2-21.1,7.6-31.9,10.3v.4c6.7,3.4,11,8.5,12.8,15.3s2.7,13.6,2.7,20.4v76.8l-25.2,19.1c-13.2,10.1-25,15.1-35.3,15.1s-12.1-2.5-16-7.6c-4-5.1-5.9-13-5.9-23.8V6c0-.3-.2-.6-.6-.6h0c-.1,0-.2,0-.3,0-9.1,5.7-18.8,10.7-29.2,14.9-10.4,4.2-21.1,7.6-31.9,10.3v.4c6.7,3.4,11,8.5,12.8,15.3,1.8,6.8,2.7,13.6,2.7,20.4v102.4c0,11.5,3.4,20.2,10.1,26s15.1,8.6,25.2,8.6,13.8-1.3,21.3-3.8c7.4-2.5,12.5-4.4,21.1-10.3L444.8,47.7c7.5-5.5,15.3-11.5,22.5-14.3,7.2-2.8,13.9-4.1,20.2-4.1,9.1,0,16.5,2.8,22.2,8.5,5.6,5.7,8.5,13.9,8.5,24.7v107.4c0,11.5,3.2,20.1,9.7,25.6,6.5,5.5,13.9,8.3,22.3,8.3s17.1-2.8,25.4-8.3,14.1-13.9,17.5-25.2v-.4c-2.4,3.4-5.3,6.1-8.8,8.3h0Z"/>
  <path class="st0" d="M151.8,10.6c-3.7-3.3-7.9-5.8-12.7-7.3-4.8-1.5-10.1-2.2-15.7-2s-11.4,1.3-17.3,3.3c-8.2,2.8-16.1,7.1-23.8,12.9-7.3,5.6-13.8,12.5-19.4,20.5V7c0-.3-.2-.6-.6-.6h0c-.1,0-.2,0-.3,0-9.1,5.7-18.8,10.7-29.2,14.9-10.5,4.2-21.1,7.6-31.9,10.3v.4c6.7,3.4,11,8.5,12.8,15.3,1.8,6.8,2.7,13.6,2.7,20.4v137h.4c4.1-.5,8-.9,11.7-1.3,3.7-.4,7.5-.5,11.4-.5s7.6.2,11.4.5c3.7.4,7.5.8,11.4,1.3h.4V52.8c0-.6.2-1.2.7-1.7,1.1-1.1,1.8-1.6,1.8-1.6,5.9-4.9,12.3-9,18.2-11,8.7-2.9,16.6-2.6,23.7,1,6.9,3.5,12.2,10.1,15.6,19.9.1.3.5.3.7,0,2-4.4,12.2-25.1,36.1-35.3.2-.1.4-.4.3-.6-1.8-5.3-4.5-9.5-8.1-12.8h0Z"/>
</svg>